{
  "accessors": [
    {
      "bufferView": 2,
      "componentType": 5126,
      "count": 65532,
      "max": [
        13.335675239562988,
        9.06229019165039,
        35.53998565673828
      ],
      "min": [
        -12.068321228027344,
        -24.012714385986328,
        -0.008877212181687355
      ],
      "type": "VEC3"
    },
    {
      "bufferView": 2,
      "byteOffset": 786384,
      "componentType": 5126,
      "count": 65532,
      "max": [
        0.9999750256538391,
        0.999979555606842,
        0.9999961853027344
      ],
      "min": [
        -0.9999390840530396,
        -0.9999879598617554,
        -1.0
      ],
      "type": "VEC3"
    },
    {
      "bufferView": 1,
      "componentType": 5126,
      "count": 65532,
      "max": [
        0.9903345704078674,
        0.9879255294799805
      ],
      "min": [
        0.002000167965888977,
        0.0020001307129859924
      ],
      "type": "VEC2"
    },
    {
      "bufferView": 0,
      "componentType": 5125,
      "count": 358368,
      "type": "SCALAR"
    },
    {
      "bufferView": 2,
      "byteOffset": 1572768,
      "componentType": 5126,
      "count": 65532,
      "max": [
        11.764148712158203,
        8.894918441772461,
        35.52227020263672
      ],
      "min": [
        -11.953132629394531,
        -12.371956825256348,
        -0.023709498345851898
      ],
      "type": "VEC3"
    },
    {
      "bufferView": 2,
      "byteOffset": 2359152,
      "componentType": 5126,
      "count": 65532,
      "max": [
        0.9999575614929199,
        0.999992847442627,
        0.9999696612358093
      ],
      "min": [
        -0.9999174475669861,
        -0.9999927878379822,
        -0.9999904036521912
      ],
      "type": "VEC3"
    },
    {
      "bufferView": 1,
      "byteOffset": 524256,
      "componentType": 5126,
      "count": 65532,
      "max": [
        0.9808610677719116,
        0.9931243062019348
      ],
      "min": [
        0.012161485850811005,
        0.010924642905592918
      ],
      "type": "VEC2"
    },
    {
      "bufferView": 0,
      "byteOffset": 1433472,
      "componentType": 5125,
      "count": 351270,
      "type": "SCALAR"
    },
    {
      "bufferView": 2,
      "byteOffset": 3145536,
      "componentType": 5126,
      "count": 28836,
      "max": [
        11.588470458984375,
        5.962067604064941,
        30.401010513305664
      ],
      "min": [
        -11.6613130569458,
        -12.18252182006836,
        0.7437795400619507
      ],
      "type": "VEC3"
    },
    {
      "bufferView": 2,
      "byteOffset": 3491568,
      "componentType": 5126,
      "count": 28836,
      "max": [
        0.9994121789932251,
        0.9999744296073914,
        0.9997521638870239
      ],
      "min": [
        -0.9999504089355469,
        -0.9999518990516663,
        -0.9999854564666748
      ],
      "type": "VEC3"
    },
    {
      "bufferView": 1,
      "byteOffset": 1048512,
      "componentType": 5126,
      "count": 28836,
      "max": [
        0.6300196051597595,
        0.7626169323921204
      ],
      "min": [
        0.018060237169265747,
        0.2319963574409485
      ],
      "type": "VEC2"
    },
    {
      "bufferView": 0,
      "byteOffset": 2838552,
      "componentType": 5125,
      "count": 159522,
      "type": "SCALAR"
    }
  ],
  "asset": {
    "extras": {
      "author": "coOpsy (https://sketchfab.com/coOpsy)",
      "license": "CC-BY-4.0 (http://creativecommons.org/licenses/by/4.0/)",
      "source": "https://sketchfab.com/3d-models/ninja-turtles-leonardo-toy-09b99b7941964c818969edf69a72e790",
      "title": "Ninja Turtles \"Leonardo\" Toy"
    },
    "generator": "Sketchfab-14.80.0",
    "version": "2.0"
  },
  "bufferViews": [
    {
      "buffer": 0,
      "byteLength": 3476640,
      "name": "floatBufferViews",
      "target": 34963
    },
    {
      "buffer": 0,
      "byteLength": 1279200,
      "byteOffset": 3476640,
      "byteStride": 8,
      "name": "floatBufferViews",
      "target": 34962
    },
    {
      "buffer": 0,
      "byteLength": 3837600,
      "byteOffset": 4755840,
      "byteStride": 12,
      "name": "floatBufferViews",
      "target": 34962
    }
  ],
  "buffers": [
    {
      "byteLength": 8593440,
      "uri": "scene.bin"
    }
  ],
  "extensionsUsed": [
    "KHR_materials_unlit"
  ],
  "images": [
    {
      "uri": "textures/blank_8_baseColor.png"
    }
  ],
  "materials": [
    {
      "doubleSided": true,
      "extensions": {
        "KHR_materials_unlit": {}
      },
      "name": "blank_8",
      "pbrMetallicRoughness": {
        "baseColorTexture": {
          "index": 0
        },
        "metallicFactor": 0.0
      }
    }
  ],
  "meshes": [
    {
      "name": "Ninja_Turtle_blank_8_0",
      "primitives": [
        {
          "attributes": {
            "NORMAL": 1,
            "POSITION": 0,
            "TEXCOORD_0": 2
          },
          "indices": 3,
          "material": 0,
          "mode": 4
        }
      ]
    },
    {
      "name": "Ninja_Turtle_blank_8_0",
      "primitives": [
        {
          "attributes": {
            "NORMAL": 5,
            "POSITION": 4,
            "TEXCOORD_0": 6
          },
          "indices": 7,
          "material": 0,
          "mode": 4
        }
      ]
    },
    {
      "name": "Ninja_Turtle_blank_8_0",
      "primitives": [
        {
          "attributes": {
            "NORMAL": 9,
            "POSITION": 8,
            "TEXCOORD_0": 10
          },
          "indices": 11,
          "material": 0,
          "mode": 4
        }
      ]
    }
  ],
  "nodes": [
    {
      "children": [
        1
      ],
      "matrix": [
        0.0529632642865181,
        0.0,
        0.0,
        0.0,
        0.0,
        1.1760207094039931e-17,
        -0.0529632642865181,
        0.0,
        0.0,
        0.0529632642865181,
        1.1760207094039931e-17,
        0.0,
        0.0,
        0.0,
        0.0,
        1.0
      ],
      "name": "Sketchfab_model"
    },
    {
      "children": [
        2
      ],
      "matrix": [
        1.0,
        0.0,
        0.0,
        0.0,
        0.0,
        0.0,
        1.0,
        0.0,
        0.0,
        -1.0,
        0.0,
        0.0,
        0.0,
        0.0,
        0.0,
        1.0
      ],
      "name": "NinjaTurtle.FBX"
    },
    {
      "children": [
        3
      ],
      "name": "RootNode"
    },
    {
      "children": [
        4
      ],
      "matrix": [
        1.0,
        0.0,
        0.0,
        0.0,
        0.0,
        0.9999999999999867,
        1.6292068494294582e-07,
        0.0,
        0.0,
        -1.6292068494294582e-07,
        0.9999999999999867,
        0.0,
        0.0,
        0.0,
        0.0,
        1.0
      ],
      "name": "SPIN"
    },
    {
      "children": [
        5,
        6,
        7
      ],
      "matrix": [
        1.0,
        0.0,
        0.0,
        0.0,
        0.0,
        -1.6292068472090193e-07,
        -0.9999999999999868,
        0.0,
        0.0,
        0.9999999999999868,
        -1.6292068472090193e-07,
        0.0,
        0.0,
        0.0,
        0.0,
        1.0
      ],
      "name": "Ninja_Turtle"
    },
    {
      "mesh": 0,
      "name": "Ninja_Turtle_blank_8_0"
    },
    {
      "mesh": 1,
      "name": "Ninja_Turtle_blank_8_0"
    },
    {
      "mesh": 2,
      "name": "Ninja_Turtle_blank_8_0"
    }
  ],
  "samplers": [
    {
      "magFilter": 9729,
      "minFilter": 9987,
      "wrapS": 10497,
      "wrapT": 10497
    }
  ],
  "scene": 0,
  "scenes": [
    {
      "name": "Sketchfab_Scene",
      "nodes": [
        0
      ]
    }
  ],
  "textures": [
    {
      "sampler": 0,
      "source": 0
    }
  ]
}
